<?xml version="1.0" encoding="UTF-8"?>
<svg version="1.1" xmlns="http://www.w3.org/2000/svg" width="32" height="32">
<path d="M0 0 C4.8846525 2.26787438 7.73212562 5.1153475 10 10 C10.75381535 15.5997712 10.77303575 20.33499991 8.375 25.5 C3.80134327 30.3143755 0.6912538 32.25156236 -6 32.5 C-12.6912538 32.25156236 -15.80134327 30.3143755 -20.375 25.5 C-22.77303575 20.33499991 -22.75381535 15.5997712 -22 10 C-17.52212837 0.3553534 -9.85292056 -1.32635469 0 0 Z " fill="#D7A5F8" transform="translate(22,0)"/>
<path d="M0 0 C0.87785156 -0.00515625 1.75570313 -0.0103125 2.66015625 -0.015625 C4.9375 0.25 4.9375 0.25 6.9375 2.25 C7.44279653 6.89872812 6.69927549 8.64768414 3.9375 12.25 C4.15467352 14.45800528 4.15467352 14.45800528 4.9375 16.25 C6.5875 15.59 8.2375 14.93 9.9375 14.25 C9.36405063 17.11724686 9.0760485 18.1114515 6.9375 20.25 C4.375 20.4375 4.375 20.4375 1.9375 20.25 C-0.03072886 18.28177114 0.27501619 14.90191291 -0.0625 12.25 C-1.0525 12.25 -2.0425 12.25 -3.0625 12.25 C-3.3925 14.89 -3.7225 17.53 -4.0625 20.25 C-5.3825 20.25 -6.7025 20.25 -8.0625 20.25 C-8.5951514 13.991346 -6.88099506 9.79891215 -4.0625 4.25 C-3.4025 4.25 -2.7425 4.25 -2.0625 4.25 C-2.0625 5.9 -2.0625 7.55 -2.0625 9.25 C-0.7425 8.92 0.5775 8.59 1.9375 8.25 C1.9375 6.6 1.9375 4.95 1.9375 3.25 C-1.5844721 3.16995518 -4.68231469 3.20994298 -8.0625 4.25 C-8.0625 3.59 -8.0625 2.93 -8.0625 2.25 C-4.81167327 0.08278218 -3.77017847 -0.02221018 0 0 Z " fill="#0C090E" transform="translate(15.0625,5.75)"/>
<path d="M0 0 C0.66 0 1.32 0 2 0 C2.33 2.31 2.66 4.62 3 7 C2.01 7.495 2.01 7.495 1 8 C0.53476937 9.89533342 0.53476937 9.89533342 0.375 12.0625 C0.189375 14.0115625 0.189375 14.0115625 0 16 C-1.32 16 -2.64 16 -4 16 C-4.5326514 9.741346 -2.81849506 5.54891215 0 0 Z " fill="#151019" transform="translate(11,10)"/>
<path d="M0 0 C1.99954746 -0.04254356 4.00041636 -0.04080783 6 0 C7 1 7 1 7.0625 3.5625 C7.041875 4.366875 7.02125 5.17125 7 6 C5.35 6.33 3.7 6.66 2 7 C1.34 4.69 0.68 2.38 0 0 Z " fill="#CA9CEA" transform="translate(11,8)"/>
</svg>
